<svg xmlns="http://www.w3.org/2000/svg" viewBox="0 0 200 60" fill="none">
  <!-- Cloud/globe swooshes -->
  <path d="M8 30C8 16 18 6 34 6c10 0 18 4 22 12" stroke="#29ABE2" stroke-width="3.5" fill="none" stroke-linecap="round"/>
  <path d="M6 38c-2-1-3-3-3-6 0-6 5-10 12-10 1-8 8-14 17-14 8 0 14 4 17 11 5 1 9 6 9 11 0 5-3 9-7 11" stroke="#29ABE2" stroke-width="3" fill="none" stroke-linecap="round"/>
  <path d="M4 42c4 4 12 8 24 8 14 0 24-6 30-14" stroke="#29ABE2" stroke-width="3" fill="none" stroke-linecap="round"/>
  <path d="M20 12c-2 5-3 11-3 18s1 13 3 18" stroke="#29ABE2" stroke-width="2" fill="none" stroke-linecap="round" opacity="0.5"/>
  <path d="M38 12c2 5 3 11 3 18s-1 13-3 18" stroke="#29ABE2" stroke-width="2" fill="none" stroke-linecap="round" opacity="0.5"/>
  <path d="M8 30h42" stroke="#29ABE2" stroke-width="1.5" fill="none" opacity="0.4"/>
  <!-- "Cloud" text -->
  <text x="64" y="28" font-family="Inter, Arial, sans-serif" font-weight="700" font-size="22" fill="#29ABE2">Cloud</text>
  <!-- "Web Manage" text -->
  <text x="64" y="48" font-family="Inter, Arial, sans-serif" font-weight="600" font-size="14" fill="#555555">Web Manage</text>
</svg>
